<svg width="10" height="213" viewBox="0 0 10 213" fill="none" xmlns="http://www.w3.org/2000/svg">
<path fill-rule="evenodd" clip-rule="evenodd" d="M5.49993 209.83C5.60045 209.719 5.70776 209.603 5.82096 209.484C6.54071 208.725 7.5334 207.802 8.55498 207.263L9.02134 208.148C8.1488 208.608 7.24738 209.433 6.54654 210.172C6.20062 210.536 5.91206 210.871 5.71025 211.114C5.60945 211.236 5.53057 211.334 5.47729 211.402C5.45066 211.435 5.43045 211.461 5.41712 211.478L5.40235 211.498L5.39894 211.502L5.39826 211.503L5.39817 211.503L4.99993 212.028L4.60169 211.503L4.6016 211.503L4.60091 211.502L4.59751 211.498L4.58274 211.478C4.5694 211.461 4.54919 211.435 4.52256 211.402C4.46929 211.334 4.39041 211.236 4.28961 211.114C4.08779 210.871 3.79923 210.536 3.45332 210.172C2.75247 209.433 1.85105 208.608 0.978516 208.148L1.44488 207.263C2.46645 207.802 3.45915 208.725 4.17889 209.484C4.29209 209.603 4.3994 209.719 4.49993 209.83V0H5.49993V209.83Z" fill="white"/>
</svg>
