<svg width="36" height="36" viewBox="0 0 36 36" fill="none" xmlns="http://www.w3.org/2000/svg">
<g clip-path="url(#clip0_479_469)">
<path d="M8.43526 14.6765H12.5311V27.8506H8.43526V14.6765ZM10.4833 8.12793C11.7923 8.12793 12.8562 9.19178 12.8562 10.503C12.8562 11.813 11.7923 12.8768 10.4833 12.8768C9.17113 12.8768 8.11035 11.813 8.11035 10.503C8.11035 9.19178 9.17113 8.12793 10.4833 8.12793Z" fill="#0A3A5B"/>
<path d="M15.0996 14.6768H19.027V16.4783H19.083C19.6296 15.4421 20.9657 14.3506 22.9571 14.3506C27.1034 14.3506 27.8686 17.0783 27.8686 20.6254V27.8509H23.7759V21.4443C23.7759 19.9161 23.7494 17.9511 21.6482 17.9511C19.5175 17.9511 19.1923 19.6167 19.1923 21.3345V27.8509H15.0996V14.6768Z" fill="#0A3A5B"/>
</g>
<defs>
<clipPath id="clip0_479_469">
<rect width="20" height="20" fill="white" transform="translate(8 8)"/>
</clipPath>
</defs>
</svg>
