<svg width="32" height="48" viewBox="0 0 32 48" fill="none" xmlns="http://www.w3.org/2000/svg">
<path d="M19.1401 0.410436C18.3288 0.607579 19.1002 -0.204993 19.1401 0.410436V0.410436Z" fill="#BBBBBB"/>
<path d="M31.8331 1.4359C27.5853 0.566667 23.8087 0.770086 19.7245 0.820513C19.4462 0.77094 19.3957 0.482906 19.1386 0.410257C19.0955 0.570086 18.975 0.648718 18.748 0.615385C17.7446 0.968376 15.6354 -0.0427348 16.4052 0.410257C16.524 0.422222 16.6363 0.441026 16.6005 0.615385C15.0747 0.658974 14.6101 1.25641 13.8663 0C13.4106 0 12.9549 0 12.4992 0C13.0998 0.605983 10.5429 1.00342 11.718 0C11.5878 0 11.4576 0 11.3274 0C10.6813 0.719658 9.46473 -0.0811963 8.7885 0.820513C9.15225 -0.107692 8.08624 0.464103 8.0073 0C7.9422 0 7.8771 0 7.812 0C7.528 0.317094 7.05033 0.430769 6.4449 0.410257C6.4449 0.273504 6.4449 0.136752 6.4449 0C5.6637 0 4.8825 0 4.1013 0C3.77173 1.07265 0.603802 -0.769231 0.5859 1.4359C0.128572 0.806838 0.396296 1.27607 0 1.64103C0 1.84615 0 2.05128 0 2.25641C0.335265 3.13504 0.460582 4.23419 0.7812 5.12821C0.255517 5.49402 0.40362 4.22479 0.1953 4.92308C0.289695 19.7197 0.331196 32.8162 0.5859 47.1795C2.47787 48.6265 5.56361 47.0684 7.6167 48C7.6818 48 7.7469 48 7.812 48C15.943 47.3068 23.2936 47.5675 31.6386 47.1795C32.4939 33.8701 31.5206 17.3752 31.8331 1.4359ZM14.4522 45.3325C14.1894 44.7538 15.4873 44.8179 14.8428 44.512C16.7795 43.9769 16.8788 44.9273 18.3582 44.1026C18.0539 44.6214 17.494 44.6256 18.3582 44.9231C17.0725 45.4718 15.6387 44.6359 14.4522 45.3325ZM6.4449 33.6402C9.76826 35.894 12.0728 39.2162 15.0381 41.8462C14.5759 42.3179 13.2853 41.9197 12.4992 42.0504C12.6196 41.0966 11.2102 40.6803 11.718 40C11.1362 38.2906 6.66299 36.3821 6.4449 33.6402ZM5.859 37.5385C7.55486 38.3068 7.40513 40.3 8.3979 41.4359C7.66634 42.1145 7.36444 41.9812 6.0543 42.0513C5.62708 40.9274 5.96804 38.9957 5.859 37.5385ZM26.9506 13.3325C26.9506 14.2214 26.9506 15.1103 26.9506 15.9991C25.9302 15.1547 24.4792 13.6744 24.4117 12.512C24.0073 11.5812 21.011 8.62222 18.9433 6.9735C19.089 6.51026 20.0394 6.89316 20.5057 6.76838C22.5246 9.09316 24.7624 11.188 26.9506 13.3325ZM24.2172 6.97436C24.6802 6.43504 26.1198 6.05897 26.9506 6.5641C26.9506 8 26.9506 9.4359 26.9506 10.8718C25.197 10.1556 25.4061 7.84615 24.2172 6.97436ZM24.9984 16.6145C25.8724 17.5325 27.7416 18.594 26.5608 19.8966C25.9961 19.806 25.6706 19.4641 25.5843 18.8709C25.7585 18.9615 25.9342 19.0504 25.9749 19.2812C25.8756 18.6009 25.2905 17.8316 24.607 18.0504C24.9504 17.0803 23.3961 16.8667 23.2399 15.794C22.8493 15.794 22.4587 15.794 22.0681 15.794C22.0738 15.5949 22.3073 15.635 22.4587 15.5889C19.9328 12.2932 16.3572 10.1 14.0608 6.56325C15.7615 6.4359 17.5933 8.7812 18.748 10.2556C20.3853 12.3444 23.043 14.5615 24.9984 16.6145ZM26.9506 23.5889C27.0108 24.3359 26.9197 24.9239 26.7561 25.435C26.2955 25.3718 26.3924 24.7231 25.7796 24.8197C25.7251 24.488 25.9643 24.4667 25.9749 24.2043C25.4614 24.3786 25.2141 23.4761 24.4117 23.3838C26.0245 23.7915 23.6281 21.2239 23.0446 21.7427C23.0682 20.759 21.2128 18.5034 19.9198 18.6658C20.854 18.2256 18.8969 16.9085 18.1621 15.9991C16.7226 14.2171 14.7175 12.8701 13.0843 11.2812C12.2771 10.4957 11.8262 9.2906 11.1313 8.81966C10.8343 8.61795 9.17422 7.4359 9.37359 6.56325C10.8758 6.83162 11.4104 8.11624 12.6937 8.61453C17.1506 13.9179 22.1926 18.6043 26.9506 23.5889ZM26.9506 28.7171C27.067 29.5897 26.8106 30.0735 26.7561 30.7684C26.2988 30.2231 25.9285 29.5846 25.1937 29.3316C25.3402 28.9444 25.7764 29.1897 25.3882 28.7162C24.8332 28.9667 24.0211 27.3692 23.8258 26.665C23.4816 26.5231 23.2212 26.4385 23.0446 26.665C22.7834 26.5598 22.8599 26.3291 23.0601 26.2667C22.6971 26.1752 22.584 25.3752 22.0681 25.8444C22.0819 24.8017 20.0842 22.3393 18.5535 22.3573C17.9058 22.1573 18.7716 21.9513 18.748 21.7419C14.6548 17.153 9.50135 13.288 6.2496 8.40855C6.99174 7.39316 7.37014 9.84188 8.5932 9.63932C14.5922 16.1256 20.7946 22.3974 26.9506 28.7171ZM8.5932 14.7684C14.5922 21.2538 20.7946 27.5256 26.9514 33.8453C27.0678 34.7179 26.8114 35.2017 26.7569 35.8966C26.2996 35.3513 25.9293 34.7128 25.1945 34.4598C25.341 34.0727 25.7772 34.3179 25.389 33.8444C24.834 34.0949 24.0219 32.4974 23.8266 31.7932C23.4824 31.6513 23.222 31.5667 23.0454 31.7932C22.7842 31.688 22.8607 31.4573 23.0609 31.3949C22.6979 31.3034 22.5848 30.5034 22.0689 30.9726C22.0827 29.9299 20.085 27.4667 18.5543 27.4855C17.9066 27.2855 18.7724 27.0803 18.7488 26.8701C14.6556 22.2812 9.50216 18.4162 6.25042 13.5368C6.99174 12.5231 7.37014 14.9709 8.5932 14.7684ZM8.5932 19.8966C14.5922 26.3821 20.7946 32.6538 26.9514 38.9735C27.0678 39.8462 26.8114 40.3299 26.7569 41.0248C26.2996 40.4795 25.9293 39.841 25.1945 39.588C25.341 39.2009 25.7772 39.4462 25.389 38.9726C24.834 39.2231 24.0219 37.6256 23.8266 36.9214C23.4824 36.7795 23.222 36.6949 23.0454 36.9214C22.7842 36.8162 22.8607 36.5855 23.0609 36.5231C22.6979 36.4316 22.5848 35.6316 22.0689 36.1009C22.0827 35.0581 20.085 32.5949 18.5543 32.6137C17.9066 32.4137 18.7724 32.2085 18.7488 31.9983C14.6556 27.4094 9.50216 23.5444 6.25042 18.665C6.99174 17.6513 7.37014 20.0991 8.5932 19.8966ZM24.8031 41.8462C24.3409 42.3179 23.0503 41.9197 22.2642 42.0504C21.4423 40.8 20.7563 39.659 20.1159 38.7684C20.0345 38.6564 19.4714 38.5368 19.3347 38.359C19.1614 38.1325 19.6016 37.9274 19.5292 37.7427C19.4177 37.4581 18.9848 37.5795 18.9433 37.5385C18.8196 37.4137 18.3802 35.9179 17.3809 36.3077C17.603 34.9444 15.9625 33.8581 14.6467 33.4359C15.3555 32.8137 13.8492 32.3615 13.2796 31.7949C12.5106 31.0291 11.5081 29.1812 10.5454 28.5128C8.91057 27.3778 6.69961 25.2581 6.24879 23.5897C13.1876 28.8829 18.4957 35.8889 24.8031 41.8462ZM19.9206 41.8462C19.4584 42.3179 18.1678 41.9197 17.3817 42.0504C15.8624 40.0786 15.8266 38.2957 14.0616 37.7427C14.3993 36.7761 12.9272 36.1103 12.1086 35.6923C10.9238 32.9581 6.9421 31.7205 6.2496 28.5128C11.3852 32.3487 15.2635 37.506 19.9206 41.8462ZM30.2715 45.5376C26.1189 45.6744 22.9307 44.8598 18.9441 45.3325C18.8839 44.8496 18.2663 44.9513 18.3582 44.3077C19.6065 45.1504 19.9507 44.8265 21.2877 44.3077C21.2397 44.5308 20.8995 44.4462 20.8979 44.7171C21.5489 44.7308 22.6621 44.6923 23.4368 44.1017C23.1276 44.9043 23.9438 44.5265 24.0227 44.9222C25.6502 44.3154 27.2061 45.3547 29.1005 44.1017C29.7466 42.188 29.1868 40.4103 28.9052 39.1786C29.2739 39.3325 29.0411 39.7906 29.4911 39.3829C29.0151 27.8299 29.3048 16.1171 28.9052 4.71624C26.1832 3.15214 19.4617 4.17094 14.8436 4.30598C11.9743 4.38974 7.88443 4.10855 4.29741 4.71624C3.88566 17.4573 3.99958 30.3581 4.29741 43.6906C6.51814 43.9624 8.85442 44.153 11.1329 44.3068C12.4488 44.3957 14.0494 43.6009 14.6483 44.7162C13.5636 44.8231 12.4455 44.2932 11.3282 45.1265C11.4747 44.7385 11.9109 44.9838 11.5235 44.5103C10.8579 45.1923 9.64538 44.2701 9.17992 45.3308C8.04473 44.0017 6.28297 44.8026 3.90682 44.7154C2.85301 44.0803 3.38032 42.7085 2.73501 41.4333C2.99135 41.506 3.0418 41.7949 3.32091 41.8436C3.02715 36.9607 3.67164 32.7504 2.93031 29.3299C3.42182 20.6299 2.8229 12.1547 3.12561 3.48376C10.9335 3.25214 19.7758 2.93932 30.0778 2.86838C30.0697 15.2308 30.3317 31.6744 30.2715 45.5376Z" fill="#BBBBBB"/>
</svg>
