<svg width="38" height="48" viewBox="0 0 38 48" fill="none" xmlns="http://www.w3.org/2000/svg">
<path d="M16.0007 3.75659C14.7899 2.97049 15.5093 0.801754 13.8277 0.2087C13.8277 0.139133 13.8277 0.0695665 13.8277 0C13.5644 0 13.301 0 13.0376 0C12.4079 0.979148 11.2046 0.526097 10.4696 1.0435C10.8441 1.74351 8.06453 2.69918 7.50649 3.54789C7.44969 3.18006 8.43657 2.90179 7.90156 2.71309C7.19454 3.52963 6.83732 4.74356 5.72863 4.59139C4.97058 5.49575 5.2068 7.32013 4.34586 6.46968C4.25779 7.76797 2.98613 7.81579 3.35816 9.60017C2.66431 9.21234 2.70793 9.75844 2.17293 10.0176C1.3729 12.5941 0.433763 15.0185 0.197539 18.1569C0.131693 18.1569 0.0658464 18.1569 0 18.1569C0 18.4351 0 18.7134 0 18.9916C0.47574 20.4438 0.155562 20.6621 0.790156 22.1221C0.387671 22.0056 0.402486 21.4943 0 21.9134C0 21.983 0 22.0526 0 22.1221C1.57867 33.0189 7.95753 40.1851 17.7785 42.366C17.8246 43.3886 17.4304 43.9451 17.581 45.0791C15.2492 44.9208 13.1528 44.6825 11.4573 45.2869C10.9396 46.7782 11.1058 47.6356 12.445 48C12.5767 48 12.7083 48 12.84 48C12.8392 47.3922 14.2047 47.7913 14.6179 48C16.3957 48 18.1736 48 19.9514 48C20.7704 47.5739 21.8429 47.6183 22.7162 48C22.9796 48 23.2438 48 23.5063 48C25.0364 47.4782 26.5665 48.2661 26.6678 46.5391C26.8159 43.9999 21.4709 45.4678 20.149 45.2869C20.3663 44.0765 19.8337 42.5669 19.9514 42.1564C24.2537 42.319 27.8217 41.7051 30.2227 39.8607C30.1033 38.2468 29.3823 37.2702 28.8399 36.1041C33.4343 33.2119 37.3596 28.7666 37.9267 22.33C39.0321 9.80626 27.4481 -0.283483 16.0007 3.75659ZM32.989 13.9829C30.947 15.2507 28.8358 14.1429 27.853 15.6525C26.6521 14.4168 25.9961 12.6054 24.8899 11.2698C25.6834 10.1611 26.6834 9.26886 27.4579 8.13928C29.7313 9.63409 31.9594 11.175 32.989 13.9829ZM19.3588 30.4701C20.0873 31.9606 20.079 32.5528 20.3465 33.3919C19.1662 33.5441 18.3711 33.6328 16.5933 33.1832C16.9571 31.6893 18.2477 31.1745 19.3588 30.4701ZM14.6179 31.3049C12.6705 30.2327 10.998 28.8692 9.87696 26.9231C11.5503 25.7692 13.6821 25.0987 15.4081 24.0013C16.8698 26.8022 16.1258 27.024 16.9884 29.0101C16.1282 29.7005 15.3356 30.4632 14.6179 31.3049ZM19.5564 27.9657C19.3572 27.4031 18.6 26.3457 19.1613 25.67C19.051 25.1987 18.8535 25.9231 18.5687 25.4613C19.5457 24.8674 18.2888 24.2752 18.3711 23.3743C19.3522 23.1587 19.7975 22.3769 20.94 22.3308C21.7071 23.4822 22.2775 24.4326 22.717 26.2961C21.5211 26.7022 20.726 27.5318 19.5564 27.9657ZM19.5564 13.7742C20.3185 12.935 21.3285 13.1837 22.1244 12.7307C22.4314 13.3707 24.4702 15.2577 24.8899 17.1134C23.5458 18.0499 23.5286 18.4664 21.926 18.9916C21.1153 17.2751 20.3852 15.4733 19.5564 13.7742ZM23.3104 27.9657C24.429 29.4971 25.1047 31.4971 25.8784 33.3919C24.9064 34.0432 24.1681 32.9032 24.1006 31.931C23.2652 31.1432 22.34 30.4519 21.5326 29.6344C22.2552 29.2179 23.0108 28.8327 23.3104 27.9657ZM24.2973 25.2526C23.5952 23.61 24.5747 22.2082 23.7047 21.2873C24.0998 20.4525 25.322 20.4908 25.8784 19.8264C27.1312 20.6586 27.5032 22.423 27.853 24.2091C26.4455 24.3222 25.7303 25.1657 24.2973 25.2526ZM25.6801 7.09665C24.8718 9.56713 21.9828 8.10015 21.3342 6.47055C22.7458 6.72708 24.1714 6.57316 25.6801 7.09665ZM21.5318 10.435C20.6363 10.9498 19.944 11.6793 18.7662 11.8959C18.4485 10.8132 18.3934 9.44104 18.7662 9.39147C18.679 8.85842 18.4897 8.43233 18.1736 8.13928C19.0872 8.29059 20.8922 9.30017 21.5318 10.435ZM20.1498 19.8264C19.1983 20.6995 17.6073 20.8969 16.5941 21.7047C15.3718 19.863 16.8921 18.0273 15.6064 16.2786C17.8633 13.5263 19.4872 17.7438 20.1498 19.8264ZM15.2105 8.55668C15.2056 8.75929 14.9685 8.71929 14.8154 8.76538C14.98 10.3993 16.2657 10.8506 16.3957 12.522C15.4179 12.4628 15.2171 13.2246 14.4204 13.3568C14.7463 11.5019 13.4294 9.01756 15.2105 8.55668ZM14.8154 22.1221C13.1503 23.3543 11.1108 24.19 9.0868 25.0439C8.89091 23.9874 8.27689 22.4256 9.28434 22.1221C9.09174 21.9082 8.8942 21.7004 8.69172 21.496C8.72382 21.2517 9.05223 21.3195 9.28434 21.2873C9.15511 19.7073 9.21191 19.3473 9.28434 17.5308C10.5436 17.0177 11.3651 17.1647 12.445 16.696C13.3528 18.3803 14.0253 20.3134 14.8154 22.1221ZM12.6425 14.4003C11.7338 14.7377 11.3601 14.3524 10.6671 13.9829C10.9963 12.6602 11.8787 11.9237 12.2474 10.6437C12.8302 11.4202 12.5956 13.0585 12.6425 14.4003ZM3.75324 27.7579C3.60838 27.3144 3.73514 26.4413 3.5557 25.8796C3.28327 25.0257 2.54085 21.7256 2.76555 20.036C2.82728 19.5734 3.29973 19.5604 3.34911 19.2212C3.29973 19.1369 3.10383 16.7647 3.16063 15.6525C3.93844 16.3855 3.72773 15.0464 4.5434 14.4003C4.13104 14.0455 4.09894 13.7603 4.34586 13.1481C4.56974 13.1872 4.45533 13.3576 4.34586 13.3568C4.76398 13.3863 5.07099 12.3359 4.93848 11.2698C5.23067 11.5115 5.43644 11.5115 5.72863 11.2698C6.48504 8.24015 9.23413 7.45753 10.0745 4.38269C10.7313 4.23834 10.393 4.814 10.272 5.00879C11.2927 4.78704 12.1108 3.40093 13.0376 3.75659C13.4895 5.44532 10.6902 5.2401 10.4696 6.88708C6.89329 9.02625 5.88749 13.395 4.5434 17.5308C4.55986 20.0143 4.15902 23.3291 5.33356 25.0439C7.24228 35.065 17.0575 39.9868 27.2604 36.7302C27.56 37.3876 27.8497 38.0555 28.0506 38.8172C18.8666 43.2608 6.7509 36.9285 3.75324 27.7579ZM28.2489 32.3484C28.0637 32.2301 27.9493 31.7684 27.8538 32.1406C28.058 30.9501 26.732 28.891 25.8793 27.5492C26.434 26.9518 27.5534 26.9527 28.0522 26.297C28.6917 27.8892 28.7946 30.6545 28.2489 32.3484ZM30.2235 30.4701C30.747 29.1936 29.6086 27.3579 31.0136 26.9231C31.0087 26.7205 30.7725 26.7605 30.6194 26.7144C31.0688 25.6587 32.1322 25.2509 33.5825 25.2526C32.7553 27.3014 31.9511 29.3727 30.2235 30.4701ZM33.9767 22.5395C33.0466 22.7352 31.1988 23.2169 29.6309 23.3743C29.1872 21.5473 28.4835 19.9943 28.0506 18.1569C30.2227 17.4177 31.6178 17.8195 33.3833 16.9047C34.0714 18.2664 33.9989 20.4299 33.9767 22.5395Z" fill="#BBBBBB"/>
</svg>
