<svg width="34" height="46" viewBox="0 0 34 46" fill="none" xmlns="http://www.w3.org/2000/svg">
<path d="M23.054 13.8213C22.9075 13.9537 22.7252 14.221 22.5273 14.5562C22.7032 14.7925 22.9514 13.9863 23.054 13.8213Z" fill="#BBBBBB"/>
<path d="M23.4445 28.4672C22.9586 25.7057 19.3557 21.7761 19.5373 19.8036C19.6178 18.9294 20.5776 18.3613 20.9048 17.7408C21.2272 17.1288 21.9435 15.5413 22.5263 14.5564C22.506 14.5289 22.4856 14.497 22.4677 14.4395C23.2126 13.7493 22.5459 12.6655 23.4445 12.3767C23.4747 12.6199 23.4104 12.962 23.6391 12.9955C23.0099 11.665 24.3945 11.8575 24.8113 11.3453C25.7205 10.228 24.9179 8.66969 25.9835 7.83857C26.1259 8.40153 25.5944 8.2537 25.5927 8.66368C26.4914 7.63573 26.979 6.50034 27.351 4.53812C29.124 5.09679 28.5794 0.813079 27.5464 0.206278C27.0791 0.080792 26.1292 0.464985 25.9835 0C25.723 0 25.4617 0 25.202 0C23.4942 1.42933 22.6973 3.81872 21.8808 6.18834C21.6228 6.18576 21.7017 5.82649 21.4901 5.77578C20.8714 7.46469 20.3146 9.34955 19.9272 10.7265C19.4412 10.6955 19.8702 10.0286 19.9272 9.90135C18.7664 11.2198 18.1054 13.066 17.1921 14.6457C15.1806 11.7501 14.0198 7.95632 11.9172 5.15695C11.4996 2.28367 8.36404 -1.79032 6.0563 1.65022C6.63832 6.2846 9.29854 8.97825 10.9404 12.1704C12.3584 14.9277 13.2058 17.562 14.6523 20.2152C13.1244 22.6588 12.1728 25.71 10.5497 28.0538C4.63339 27.2433 1.15753 30.5996 0 35.4807C0 36.3746 0 37.2684 0 38.1623C0.76762 42.7838 3.65413 45.1672 8.00994 46C8.14019 46 8.27043 46 8.40067 46C8.77512 45.5574 9.41901 45.5488 9.96359 45.7946C11.7105 44.8887 13.6885 44.2269 15.0431 42.9067C17.7594 39.2375 16.9161 32.8266 13.8709 30.1175C15.1074 28.1913 15.8823 25.777 17.3874 24.1354C18.2487 26.3202 19.6292 27.9567 20.3187 30.3237C15.1293 35.3079 17.9581 44.7984 24.6159 45.5883C29.3112 46.1453 33.8217 42.7881 33.9942 37.3372C34.1953 30.9787 29.1077 27.7908 23.4445 28.4672ZM7.81539 41.2565C7.63305 41.3734 7.51909 41.8297 7.42466 41.4627C6.736 41.4378 7.37094 41.1619 7.03394 40.6376C6.70833 40.6376 6.38272 40.6376 6.05711 40.6376C4.50722 38.5473 3.58657 36.1726 5.08029 34.0359C6.19875 32.4372 9.56635 31.7694 11.332 32.7991C15.6715 35.3286 12.0515 44.477 7.81539 41.2565ZM28.3287 40.8439C28.1072 40.8052 28.2196 40.6376 28.3287 40.6385C27.2411 40.5792 26.3539 41.4971 25.3974 41.4636C21.1515 41.3123 20.0411 34.4166 23.8345 32.3865C29.0255 29.6104 33.2567 38.5267 28.3287 40.8439Z" fill="#BBBBBB"/>
</svg>
