<svg width="36" height="36" viewBox="0 0 36 36" fill="none" xmlns="http://www.w3.org/2000/svg">
<path d="M27.869 13.8121C27.869 12.0543 26.576 10.6402 24.9784 10.6402C22.8143 10.5391 20.6073 10.5 18.3518 10.5H17.6487C15.3987 10.5 13.1877 10.5391 11.0237 10.6406C9.42993 10.6406 8.13696 12.0625 8.13696 13.8203C8.0393 15.2105 7.99789 16.6012 8.00024 17.9918C7.99633 19.3824 8.0406 20.7743 8.13305 22.1676C8.13305 23.9254 9.42602 25.3512 11.0198 25.3512C13.2932 25.4566 15.6252 25.5035 17.9963 25.4996C20.3713 25.5074 22.6969 25.4579 24.9729 25.3512C26.5706 25.3512 27.8635 23.9254 27.8635 22.1676C27.9573 20.773 28.0002 19.3824 27.9963 17.9879C28.0052 16.5973 27.9627 15.2053 27.869 13.8121ZM16.0862 21.8238V14.148L21.7502 17.984L16.0862 21.8238Z" fill="#0A3A5B"/>
</svg>
