<svg width="36" height="36" viewBox="0 0 36 36" fill="none" xmlns="http://www.w3.org/2000/svg">
<g clip-path="url(#clip0_479_474)">
<path d="M17.8902 14.7529C16.1574 14.7529 14.7529 16.1576 14.7529 17.8902C14.7529 19.6228 16.1576 21.0272 17.89 21.0274C19.6228 21.0274 21.0274 19.6228 21.0274 17.8902C21.0274 16.1576 19.6228 14.7531 17.8902 14.7529Z" fill="#0A3A5B"/>
<path d="M27.2454 14.0099C27.1996 13.0081 27.0404 12.324 26.8078 11.7254C26.5715 11.0973 26.2011 10.5284 25.7223 10.0582C25.2524 9.57948 24.6833 9.20866 24.0552 8.97232C23.4566 8.73995 22.7725 8.581 21.7706 8.5354C20.7669 8.4896 20.4463 8.47852 17.8903 8.47852C15.3343 8.47852 15.0136 8.4896 14.0099 8.5352C13.0081 8.581 12.324 8.74016 11.7254 8.97274C11.0973 9.20908 10.5284 9.57948 10.0582 10.0582C9.57948 10.5282 9.20866 11.0971 8.97232 11.7252C8.73995 12.324 8.581 13.0081 8.5354 14.0097C8.48939 15.0136 8.47852 15.3343 8.47852 17.8903C8.47852 20.4465 8.48939 20.7671 8.5354 21.7709C8.581 22.7725 8.74016 23.4568 8.97295 24.0554C9.20929 24.6833 9.57969 25.2524 10.0584 25.7223C10.5284 26.2011 11.0975 26.5717 11.7256 26.8078C12.3242 27.0406 13.0083 27.1996 14.0101 27.2454C15.0138 27.2912 15.3345 27.302 17.8905 27.302C20.4465 27.302 20.7671 27.2914 21.7709 27.2454C22.7727 27.1996 23.4568 27.0406 24.0554 26.8078C25.3197 26.319 26.319 25.3195 26.8078 24.0554C27.0406 23.4566 27.1996 22.7725 27.2454 21.7709C27.2912 20.7669 27.302 20.4463 27.302 17.8903C27.302 15.3343 27.2912 15.0136 27.2454 14.0099ZM17.8901 22.7233C15.2209 22.7233 13.057 20.5595 13.057 17.8903C13.057 15.2211 15.2209 13.0572 17.8901 13.0572C20.5595 13.0572 22.7231 15.2211 22.7231 17.8903C22.7231 20.5595 20.5595 22.7233 17.8901 22.7233ZM22.9143 13.9957C22.2904 13.9957 21.7849 13.49 21.7849 12.8663C21.7849 12.2424 22.2906 11.7369 22.9143 11.7369C23.538 11.7369 24.0437 12.2426 24.0437 12.8663C24.0437 13.49 23.538 13.9957 22.9143 13.9957Z" fill="#0A3A5B"/>
</g>
<defs>
<clipPath id="clip0_479_474">
<rect width="20" height="20" fill="white" transform="translate(8 8)"/>
</clipPath>
</defs>
</svg>
