<svg width="176" height="32" viewBox="0 0 176 32" fill="none" xmlns="http://www.w3.org/2000/svg">
<g id="Unique Rugs - Main Logo" clip-path="url(#clip0_479_543)">
<path id="Vector" d="M41.0059 8.80176V17.6233C41.0085 18.0931 41.069 18.5608 41.1863 19.0158C41.3074 19.4935 41.5146 19.9452 41.7977 20.3486C42.0893 20.7618 42.4719 21.1024 42.916 21.3442C43.4494 21.5987 44.033 21.7307 44.624 21.7307C45.215 21.7307 45.7986 21.5987 46.3321 21.3442C46.7758 21.1019 47.1583 20.7614 47.4503 20.3486C47.7337 19.9456 47.9403 19.4937 48.0599 19.0158C48.178 18.561 48.2386 18.0932 48.2403 17.6233V8.80176H50.1918V17.9318C50.2021 18.7156 50.0561 19.4937 49.7626 20.2206C49.4917 20.8855 49.0913 21.49 48.5848 21.999C48.0796 22.5014 47.4777 22.8959 46.8154 23.1587C45.4009 23.6998 43.8363 23.6998 42.4218 23.1587C41.7592 22.8967 41.157 22.502 40.6524 21.999C40.1492 21.4888 39.7514 20.8845 39.4819 20.2206C39.1904 19.4932 39.0457 18.7153 39.0562 17.9318V8.80176H41.0059Z" fill="white"/>
<path id="Vector_2" d="M53.6357 8.80176H56.1969L64.1329 20.9366H64.1744V8.80176H66.1259V23.5645H63.6405L55.6288 11.4279H55.5873V23.5645H53.6357V8.80176Z" fill="white"/>
<path id="Vector_3" d="M69.8213 8.80176H71.7674V23.5645H69.8213V8.80176Z" fill="white"/>
<path id="Vector_4" d="M90.3449 23.5643H82.0482C81.0586 23.5691 80.0778 23.3778 79.1624 23.0016C78.2691 22.6412 77.4565 22.1064 76.7721 21.4285C76.0878 20.7507 75.5453 19.9432 75.1764 19.0534C74.7766 18.0931 74.5766 17.0616 74.5884 16.0215C74.5784 14.9899 74.7714 13.9665 75.1565 13.0094C75.5199 12.1117 76.0554 11.2937 76.7329 10.6016C77.4059 9.91955 78.2079 9.37819 79.0921 9.00895C80.0225 8.62092 81.0221 8.42579 82.0302 8.4354C82.9912 8.42931 83.944 8.61306 84.8339 8.97613C85.7237 9.33919 86.5331 9.87441 87.2156 10.5511C87.9072 11.2414 88.4535 12.0632 88.8224 12.9681C89.1914 13.8729 89.3754 14.8424 89.3638 15.8195C89.3645 16.4407 89.2931 17.0599 89.1509 17.6646C89.0135 18.2549 88.8013 18.8252 88.5197 19.3618C88.2472 19.8838 87.8976 20.3618 87.4826 20.7795C87.0732 21.1898 86.5952 21.5255 86.0703 21.7715V21.813H90.3449V23.5643ZM81.9653 21.6885C82.7105 21.6972 83.4489 21.5447 84.1296 21.2412C84.7721 20.9536 85.3472 20.5346 85.8178 20.0111C86.2937 19.472 86.6612 18.8461 86.9 18.1678C87.1611 17.4388 87.2918 16.6696 87.286 15.8952C87.2916 15.1476 87.157 14.4055 86.8892 13.7074C86.6401 13.05 86.2637 12.4481 85.7817 11.9363C85.3026 11.433 84.7289 11.029 84.0935 10.7477C83.4207 10.4524 82.6928 10.3036 81.958 10.3112C81.2333 10.3043 80.5155 10.4531 79.8532 10.7477C79.2221 11.031 78.6524 11.4348 78.1758 11.9363C77.6946 12.4467 77.3151 13.0441 77.0576 13.6966C76.7839 14.3851 76.6461 15.1201 76.6517 15.861C76.646 16.6353 76.7766 17.4046 77.0377 18.1335C77.2779 18.8145 77.6451 19.4437 78.1199 19.9877C78.5866 20.5158 79.1578 20.9414 79.7973 21.2376C80.476 21.5478 81.2156 21.7019 81.9616 21.6885H81.9653Z" fill="white"/>
<path id="Vector_5" d="M94.0814 8.80176V17.6233C94.0839 18.0931 94.1445 18.5608 94.2617 19.0158C94.3828 19.4935 94.59 19.9452 94.8732 20.3486C95.1643 20.7622 95.547 21.1029 95.9914 21.3442C96.5249 21.5987 97.1085 21.7307 97.6995 21.7307C98.2905 21.7307 98.8741 21.5987 99.4075 21.3442C99.8513 21.1019 100.234 20.7614 100.526 20.3486C100.809 19.9456 101.016 19.4937 101.135 19.0158C101.253 18.561 101.314 18.0932 101.316 17.6233V8.80176H103.267V17.9318C103.278 18.7155 103.133 19.4936 102.84 20.2206C102.568 20.8853 102.167 21.4897 101.66 21.999C101.156 22.502 100.554 22.8967 99.8909 23.1587C98.4769 23.6997 96.913 23.6997 95.499 23.1587C94.8364 22.8967 94.2343 22.502 93.7297 21.999C93.2232 21.4897 92.8223 20.8853 92.5501 20.2206C92.2572 19.4936 92.1118 18.7155 92.1226 17.9318V8.80176H94.0814Z" fill="white"/>
<path id="Vector_6" d="M106.709 8.80176H116.003V10.6775H108.662V15.0784H115.495V16.9542H108.662V21.6887H116.369V23.5645H106.709V8.80176Z" fill="white"/>
<path id="Vector_7" d="M124.659 8.80145H129.845C130.644 8.77387 131.441 8.90506 132.189 9.18743C132.737 9.40285 133.23 9.73739 133.632 10.1668C133.978 10.5488 134.231 11.0056 134.372 11.5015C134.507 11.9658 134.577 12.4465 134.581 12.93C134.581 13.8713 134.236 14.7799 133.611 15.4839C133.286 15.8516 132.897 16.1572 132.464 16.3857C131.995 16.6345 131.481 16.7871 130.952 16.8348L135.144 23.5696H132.646L128.892 17.0639H126.661V23.5696H124.659V8.80145ZM126.661 15.3072H129.287C129.675 15.3076 130.062 15.2762 130.445 15.2134C130.803 15.1593 131.149 15.0427 131.466 14.8689C131.769 14.7001 132.019 14.4503 132.188 14.1474C132.383 13.7718 132.477 13.3514 132.46 12.9282C132.478 12.5049 132.384 12.0844 132.188 11.7089C132.019 11.406 131.769 11.1562 131.466 10.9875C131.149 10.8137 130.803 10.697 130.445 10.643C130.062 10.5801 129.675 10.5487 129.287 10.5492H126.661V15.3072Z" fill="white"/>
<path id="Vector_8" d="M138.901 8.80176V17.6233C138.903 18.0932 138.963 18.561 139.081 19.0158C139.202 19.4934 139.408 19.9451 139.691 20.3486C139.983 20.7614 140.365 21.1019 140.809 21.3442C141.343 21.5987 141.926 21.7307 142.517 21.7307C143.108 21.7307 143.692 21.5987 144.225 21.3442C144.67 21.1029 145.052 20.7622 145.343 20.3486C145.627 19.9452 145.834 19.4935 145.955 19.0158C146.072 18.5608 146.133 18.0931 146.135 17.6233V8.80176H148.089V17.9318C148.099 18.7155 147.954 19.4936 147.661 20.2206C147.389 20.8853 146.988 21.4897 146.482 21.999C145.977 22.502 145.375 22.8967 144.712 23.1587C143.298 23.6997 141.734 23.6997 140.32 23.1587C139.658 22.8967 139.056 22.502 138.551 21.999C138.044 21.4897 137.644 20.8853 137.371 20.2206C137.078 19.4936 136.933 18.7155 136.944 17.9318V8.80176H138.901Z" fill="white"/>
<path id="Vector_9" d="M163.793 15.1451V22.2424C163.413 22.4728 163.011 22.6638 162.593 22.8123C162.137 22.9771 161.671 23.1162 161.199 23.229C160.717 23.3446 160.228 23.4296 159.734 23.4833C159.272 23.5356 158.807 23.5627 158.342 23.5644C157.224 23.5833 156.113 23.3759 155.077 22.9548C154.178 22.5876 153.364 22.0374 152.689 21.3391C152.013 20.6408 151.49 19.8097 151.153 18.8984C150.806 17.9716 150.631 16.9895 150.635 16C150.626 14.9769 150.816 13.9618 151.194 13.0114C151.548 12.1182 152.073 11.3027 152.74 10.6107C153.412 9.9223 154.218 9.37903 155.108 9.01449C156.069 8.62102 157.1 8.42415 158.138 8.43552C159.467 8.43552 160.549 8.60146 161.385 8.93333C162.179 9.23558 162.901 9.70346 163.5 10.3059L162.13 11.7903C161.595 11.2595 160.949 10.8536 160.239 10.6017C159.564 10.3764 158.856 10.263 158.144 10.2662C157.403 10.2517 156.668 10.3946 155.988 10.6853C155.307 10.976 154.695 11.408 154.194 11.9526C153.711 12.4811 153.338 13.0996 153.095 13.7725C152.835 14.4861 152.704 15.2404 152.709 16C152.702 16.7764 152.847 17.5466 153.137 18.2671C153.408 18.9446 153.809 19.5628 154.316 20.087C154.819 20.6044 155.421 21.0159 156.086 21.2973C156.787 21.5937 157.541 21.7423 158.302 21.7337C158.961 21.7374 159.619 21.6728 160.265 21.5407C160.815 21.4369 161.346 21.2482 161.839 20.9816V16.9757H158.647V15.1451H163.793Z" fill="white"/>
<path id="Vector_10" d="M167.778 20.1898C168.109 20.6996 168.577 21.105 169.129 21.3586C169.662 21.6051 170.241 21.7331 170.828 21.7338C171.166 21.7318 171.501 21.6808 171.824 21.5822C172.156 21.4842 172.469 21.3292 172.749 21.1241C173.026 20.9232 173.258 20.6671 173.431 20.372C173.612 20.057 173.704 19.6983 173.696 19.3349C173.711 19.0965 173.671 18.8577 173.579 18.6372C173.487 18.4167 173.346 18.2203 173.166 18.0634C172.772 17.7495 172.329 17.5027 171.854 17.3329C171.334 17.1369 170.764 16.9469 170.146 16.7629C169.547 16.5859 168.973 16.3293 168.442 16C167.912 15.6668 167.464 15.2186 167.131 14.6888C166.777 14.138 166.601 13.3955 166.602 12.4613C166.624 11.4656 167.032 10.5176 167.74 9.81713C168.178 9.39552 168.692 9.06129 169.255 8.83234C169.963 8.55049 170.721 8.41549 171.483 8.43554C172.247 8.43243 173.007 8.54182 173.739 8.7602C174.489 8.99976 175.149 9.46066 175.631 10.0823L174.044 11.5252C173.786 11.1326 173.428 10.8162 173.007 10.6089C172.534 10.3728 172.011 10.2546 171.483 10.2644C171.023 10.2505 170.564 10.3227 170.13 10.4773C169.807 10.5945 169.513 10.7789 169.266 11.0183C169.062 11.2216 168.905 11.4681 168.808 11.7398C168.725 11.9678 168.681 12.2079 168.676 12.4504C168.676 13.0601 168.857 13.5326 169.205 13.8537C169.588 14.1984 170.033 14.4677 170.516 14.6473C171.075 14.8602 171.645 15.0409 172.224 15.1884C172.82 15.3422 173.394 15.5713 173.932 15.8701C174.452 16.1604 174.9 16.5635 175.243 17.0497C175.597 17.5439 175.774 18.2251 175.774 19.0932C175.783 19.7385 175.647 20.3777 175.377 20.9636C175.126 21.5025 174.762 21.981 174.309 22.3668C173.842 22.7582 173.303 23.0553 172.722 23.2416C172.092 23.4482 171.433 23.5512 170.77 23.5464C169.873 23.5511 168.984 23.3858 168.148 23.0594C167.357 22.7616 166.671 22.2379 166.175 21.5534L167.778 20.1898Z" fill="white"/>
<path id="Vector_11" d="M0.229492 0.427246H31.3765V31.5724H0.231296V0.535464C0.231296 0.499391 0.229492 0.463319 0.229492 0.427246ZM14.4512 8.5887V8.70053C14.4512 11.6513 14.4512 14.602 14.4512 17.5528C14.4542 17.9394 14.405 18.3246 14.3051 18.6981C14.1946 19.1729 13.9656 19.612 13.6395 19.9744C13.3133 20.3368 12.9007 20.6107 12.4401 20.7705C11.8185 20.9836 11.1519 21.0302 10.5066 20.9057C10.0484 20.8422 9.61284 20.6672 9.23801 20.3961C8.86318 20.1251 8.56056 19.7662 8.35668 19.351C8.08211 18.805 7.94585 18.1999 7.95988 17.5888C7.95988 14.6237 7.95988 11.6591 7.95988 8.69512V8.5887H5.3933V8.66806C5.3933 11.6741 5.3933 14.685 5.3933 17.7007C5.38595 18.2947 5.45999 18.887 5.61335 19.461C5.87528 20.4499 6.42673 21.338 7.19694 22.0114C8.11079 22.7933 9.24554 23.2712 10.4435 23.3785C10.9292 23.429 11.4188 23.429 11.9044 23.3785C12.4667 23.3289 13.0195 23.2027 13.5475 23.0034C14.4835 22.6604 15.3021 22.0572 15.9067 21.2647C16.6518 20.279 17.0472 19.0732 17.0304 17.8377C17.0304 14.7716 17.0304 11.7054 17.0304 8.65002C17.0304 8.62838 17.0304 8.60493 17.0304 8.57968L14.4512 8.5887ZM22.2934 16.8692C22.4918 16.8277 22.6812 16.7934 22.8651 16.7465C23.4847 16.6042 24.0562 16.302 24.5227 15.87C25.1971 15.2228 25.6126 14.352 25.6914 13.4206C25.7465 12.9142 25.7319 12.4026 25.6481 11.9002C25.5305 11.1418 25.1645 10.444 24.6074 9.91618C24.201 9.53601 23.721 9.2432 23.197 9.05584C22.3349 8.7466 21.4255 8.58975 20.5096 8.59231C19.5933 8.57427 18.6771 8.59231 17.7608 8.59231H17.6761V10.8469H17.7807C18.7925 10.8631 19.8044 10.8054 20.8144 10.8919C21.2237 10.9177 21.6248 11.0186 21.9976 11.1895C22.2145 11.2849 22.407 11.4282 22.5604 11.6088C22.7138 11.7894 22.8242 12.0025 22.8832 12.232C22.968 12.5869 22.9772 12.9556 22.9102 13.3142C22.8492 13.6971 22.648 14.0436 22.3457 14.2864C22.1036 14.4751 21.8247 14.6109 21.5268 14.685C21.0411 14.8071 20.5414 14.8641 20.0406 14.8545C19.2831 14.8654 18.5256 14.8545 17.7681 14.8545H17.6779V17.1271H19.5284C19.5508 17.1245 19.5735 17.1293 19.593 17.1407C19.6125 17.1521 19.6278 17.1695 19.6366 17.1902C20.7573 19.2416 21.8767 21.2911 22.995 23.3388C23.0043 23.362 23.0211 23.3815 23.0426 23.3942C23.0641 23.4069 23.0892 23.4122 23.114 23.4092H26.2253C24.9111 21.222 23.6004 19.042 22.2934 16.8692Z" fill="white"/>
</g>
<defs>
<clipPath id="clip0_479_543">
<rect width="176" height="32" fill="white"/>
</clipPath>
</defs>
</svg>
